<svg width="160" height="94" viewBox="0 0 160 94" fill="none" xmlns="http://www.w3.org/2000/svg">
<path d="M32.6469 63.6285H20.8219V30.5752H32.6939C37.5232 30.5752 41.4566 32.0517 44.4939 35.0046C47.5312 37.9575 49.0502 41.9976 49.0509 47.1248C49.0509 52.2228 47.5239 56.2475 44.4699 59.1991C41.4159 62.1507 37.4749 63.6272 32.6469 63.6285ZM27.2719 57.6632H32.4129C35.3109 57.6632 37.6949 56.7619 39.5649 54.9592C41.4349 53.1566 42.3682 50.5458 42.3649 47.1268C42.3649 43.7091 41.4316 41.0906 39.5649 39.2714C37.6982 37.4522 35.3299 36.5432 32.4599 36.5445H27.2719V57.6632Z" fill="#6913D8"/>
<path d="M69.7589 55.5167L74.9469 57.0547C74.3229 59.1685 73.0999 60.9089 71.2779 62.276C69.4559 63.6431 67.1892 64.3269 64.4779 64.3276C61.1752 64.3276 58.3709 63.2165 56.0649 60.9943C53.7589 58.7722 52.6055 55.7963 52.6049 52.0668C52.6049 48.5234 53.7265 45.6253 55.9699 43.3726C58.2132 41.1198 60.8619 39.9931 63.9159 39.9924C67.4685 39.9924 70.2499 41.049 72.2599 43.1621C74.2699 45.2752 75.2745 48.1806 75.2739 51.8783C75.2739 52.1276 75.2662 52.4072 75.2509 52.7171C75.2349 53.0282 75.2279 53.2766 75.2279 53.4631L75.1809 53.7892H58.7279C58.7458 54.5007 58.9132 55.2005 59.2193 55.8434C59.5254 56.4863 59.9634 57.058 60.5049 57.5215C61.6269 58.5188 62.9669 59.0159 64.5249 59.0125C67.1722 59.0125 68.9169 57.8473 69.7589 55.5167ZM58.8679 49.5494H69.1509C69.0882 48.2747 68.6285 47.2025 67.7719 46.3328C66.9152 45.4631 65.6612 45.0279 64.0099 45.0272C62.5139 45.0272 61.2985 45.4927 60.3639 46.4236C59.4292 47.3545 58.9305 48.3964 58.8679 49.5494Z" fill="#6913D8"/>
<path d="M78.7796 57.3808C78.7796 55.4226 79.4183 53.8531 80.6956 52.6722C81.9729 51.4913 83.6246 50.7456 85.6506 50.435L91.3046 49.5962C92.4573 49.4407 93.0339 48.8967 93.0346 47.9645C93.0438 47.5544 92.9584 47.1477 92.785 46.7757C92.6116 46.4038 92.3549 46.0765 92.0346 45.8192C91.3633 45.2606 90.4049 44.981 89.1596 44.9804C87.8509 44.9804 86.8149 45.3377 86.0516 46.0525C85.2999 46.743 84.8401 47.6931 84.7656 48.7096L79.2506 47.5446C79.4686 45.5558 80.4503 43.7998 82.1956 42.2764C83.9409 40.7531 86.2439 39.9918 89.1046 39.9924C92.5326 39.9924 95.0566 40.8083 96.6766 42.44C98.2966 44.0717 99.1069 46.1616 99.1076 48.7096V59.992C99.0955 61.2099 99.1892 62.4266 99.3876 63.6284H93.6876C93.5316 62.9456 93.4536 62.0286 93.4536 60.8777C91.9869 63.147 89.7279 64.2814 86.6766 64.2807C84.3073 64.2807 82.3986 63.5969 80.9506 62.2291C79.5026 60.8614 78.7789 59.2453 78.7796 57.3808ZM87.9876 59.6658C89.4543 59.6658 90.6616 59.2539 91.6096 58.4301C92.5576 57.6062 93.0329 56.2465 93.0356 54.3508V53.3255L87.8466 54.1174C85.9459 54.3973 84.9956 55.3615 84.9956 57.0098C84.9893 57.3628 85.0573 57.7132 85.1951 58.0383C85.3329 58.3635 85.5374 58.6563 85.7956 58.8979C86.3216 59.4092 87.0523 59.6652 87.9876 59.6658Z" fill="#6913D8"/>
<path d="M111.591 63.6284H105.375V29.876H111.591V63.6284Z" fill="#6913D8"/>
<path d="M124.445 63.6284H118.228V29.876H124.445V63.6284Z" fill="#6913D8"/>
<path d="M139.305 30.5752L137.805 53.5579H133.271L131.771 30.5752H139.305ZM132.948 62.9283C132.599 62.5897 132.324 62.1833 132.139 61.7344C131.954 61.2854 131.864 60.8034 131.873 60.3182C131.865 59.8295 131.956 59.3444 132.141 58.8918C132.326 58.4392 132.6 58.0284 132.948 57.6841C133.277 57.3334 133.675 57.0548 134.118 56.8659C134.56 56.6771 135.037 56.5821 135.519 56.587C136.51 56.5896 137.459 56.9833 138.16 57.6821C138.86 58.3809 139.255 59.3279 139.258 60.3162C139.266 60.8035 139.172 61.2873 138.983 61.7366C138.794 62.186 138.513 62.5911 138.158 62.9263C137.813 63.2731 137.401 63.5468 136.947 63.731C136.493 63.9152 136.007 64.0062 135.517 63.9985C135.039 64.0041 134.564 63.9121 134.123 63.7281C133.682 63.544 133.283 63.2718 132.951 62.9283H132.948Z" fill="#F9E05B"/>
</svg>
